<svg width="316" height="320" viewBox="0 0 316 320" fill="none" xmlns="http://www.w3.org/2000/svg">
<rect x="3.93401" y="3.93401" width="308.132" height="312.731" rx="26.763" fill="#DFDFDF"/>
<rect x="3.93401" y="3.93401" width="308.132" height="312.731" rx="26.763" stroke="#686E8E" stroke-width="6.13198"/>
<g clip-path="url(#clip0_780_5872)">
<path d="M79.2498 55.3837H156.666L208.788 55.3833H237.148C252.478 55.3833 261.308 67.6472 261.308 80.5662V96.7184C260.309 128.949 256.643 144.386 245.58 168.058C226.417 202.551 190.428 237.686 162.032 157.328C142.709 91.1643 105.944 80.9093 76.6765 111.188C69.6779 118.428 52.4224 114.137 52.4224 104.067V81.4442C52.4224 63.8148 60.8538 55.3837 79.2498 55.3837Z" fill="#1E1E1E"/>
<path d="M203.948 78.2024C184.758 78.2024 169.152 92.2511 169.152 109.518V112.998C169.152 114.844 169.886 116.614 171.191 117.919C172.496 119.224 174.266 119.957 176.111 119.957C177.957 119.957 179.727 119.224 181.032 117.919C182.337 116.614 183.071 114.844 183.071 112.998V109.518C183.071 99.9496 192.439 92.1206 203.948 92.1206C215.456 92.1206 224.825 99.9496 224.825 109.518C224.825 119.087 215.456 126.916 203.948 126.916C202.102 126.916 200.332 127.649 199.027 128.954C197.722 130.259 196.989 132.03 196.989 133.875V143.495C196.989 145.341 197.722 147.111 199.027 148.416C200.332 149.721 202.102 150.454 203.948 150.454C205.794 150.454 207.564 149.721 208.869 148.416C210.174 147.111 210.907 145.341 210.907 143.495V140.208C226.774 137.294 237.874 123.187 237.874 108.068C237.874 90.8009 223.138 78.2024 203.948 78.2024Z" fill="#DFDFDF"/>
<path d="M212.509 180.187C212.509 181.958 211.984 183.689 211 185.161C210.017 186.633 208.619 187.781 206.983 188.458C205.347 189.136 203.547 189.313 201.81 188.968C200.074 188.622 198.479 187.77 197.227 186.518C195.975 185.266 195.122 183.671 194.777 181.934C194.431 180.197 194.609 178.397 195.286 176.762C195.964 175.126 197.111 173.728 198.583 172.744C200.056 171.76 201.786 171.235 203.557 171.235C205.931 171.235 208.208 172.179 209.887 173.857C211.566 175.536 212.509 177.813 212.509 180.187Z" fill="#DFDFDF"/>
<path d="M63.1533 160.393C86.1483 108.272 123.707 78.3782 150.534 160.393C169.476 224.796 206.101 243.429 240.068 203.218C246.374 195.753 261.308 199.587 261.308 209.36V256.825C261.308 261.905 257.189 266.023 252.11 266.023H61.6203C56.5404 266.023 52.4224 261.905 52.4224 256.825V224.268C53.1372 198.32 55.0765 184.272 63.1533 160.393Z" fill="#1E1E1E"/>
</g>
<defs>
<clipPath id="clip0_780_5872">
<rect width="210.02" height="211.553" fill="white" transform="translate(52.4224 54.5054)"/>
</clipPath>
</defs>
</svg>
